<?xml version="1.0" encoding="utf-8"?>
<!-- Generator: Adobe Illustrator 26.3.0, SVG Export Plug-In . SVG Version: 6.00 Build 0)  -->
<svg version="1.1" xmlns="http://www.w3.org/2000/svg" xmlns:xlink="http://www.w3.org/1999/xlink" x="0px" y="0px"
	 viewBox="0 0 1920 1080" enable-background="new 0 0 1920 1080" xml:space="preserve">
	 
<g class="pizza_corner">
	<path fill="#F7931E" d="M670.81,209h637.71v0c8-22.01,1.71-48.97-14-60.03l0,0c-1.84-1.3-3.88-1.97-5.94-1.97H690.29
		c-6.99,0-13.81,3.04-19.52,8.71l-0.94,0.93C657.76,170.77,660.96,191.8,670.81,209L670.81,209z"/>
	<polygon fill="#FFFFFF" points="670.81,209 780.21,620.76 1191.58,620.76 1308.52,209 	"/>
</g>
<g class="pizza_body" >
<polygon fill="#ffd279" points="1200,640 1305,205 680,205 785,640"/>
</g>
<g class="peperoni">
	<circle fill="#C1272D" cx="817" cy="291" r="65"/>
	<circle fill="#C1272D" cx="882" cy="451" r="65"/>
	<circle fill="#C1272D" cx="1209" cy="281" r="62"/>
	<circle fill="#C1272D" cx="1013" cy="295" r="62"/>
	<circle fill="#C1272D" cx="1132" cy="453" r="59"/>
</g>

<g class="potato">

	<polygon fill="#FBE03B" points="780.21,620.76 734.5,397.21 785.73,407.62 826.32,620.76 	"/>
	
	<polygon fill="#FBE03B" points="861.09,597.5 811.31,354 867.11,365.34 
		911.32,597.5"/>
	<polygon fill="#FBE03B" points="1141.16,613.76 1186.66,410.5 
		1242,388.5 1191.58,620.76 	"/>
	<polygon fill="#FBE03B" points="1061.16,594.39 1110.63,373.42 
		1170.79,349.5 1115.97,602 	"/>
	<path fill="#FFFFFF" stroke="#000000" stroke-miterlimit="10" d="M1072.83,542.76"/>
	
	<polygon fill="#FBE03B" points="925.89,586.32 911.41,316.1 
		965.21,330.08 976.49,591.9 	"/>
	<polygon fill="#FBE03B" points="1045.78,586.5 1068.79,316.84 
		1014.24,329.19 994.71,590.56 	"/>
</g>
<g class="burger">
	
	<path fill="#ffd279" d="M665.51,824c-9.14,0-15.71-8.82-13.06-17.56
		c18.64-61.53,98.83-262.85,347.3-248.44c247.53,14.36,301.29,194.31,312.01,249.81c1.62,8.4-4.84,16.19-13.4,16.19H665.51z"/>
	<path fill="#ffd279" d="M1294.25,929.76H669.58
		c-5.06,0-9.73,2.67-12.3,7.03v0c-9.35,15.88-9.4,35.57-0.14,51.5l0.15,0.26c2.56,4.39,7.25,7.1,12.34,7.1h624.57
		c5.74,0,10.92-3.44,13.15-8.73l0.98-2.33c5.95-14.11,5.91-30.03-0.1-44.12l-0.87-2.03
		C1305.13,933.17,1299.97,929.76,1294.25,929.76z"/>
</g>
<g class="semsem">
	<path d="M1005.95,584.82c0.74-0.78-0.83-3.81-5.32-2.75c-3.33,0.79-2.27,2.18,1.03,4.12S1005.95,584.82,1005.95,584.82z"/>
	<path d="M1019.46,602.74c1.03,0.31,3.02-2.48,0.03-5.98c-2.22-2.61-2.97-1.04-3.2,2.79
		C1016.06,603.38,1019.46,602.74,1019.46,602.74z"/>
	<path d="M967.34,595.33c0.89,0.68,3.85-1.26,2.28-5.78c-1.16-3.35-2.48-2.12-4.15,1.5C963.81,594.67,967.34,595.33,967.34,595.33z"
		/>
	<path d="M953.91,570.15c-0.22,0.99,2.52,2.69,5.65-0.34c2.32-2.25,0.8-2.87-2.83-2.85C953.09,566.98,953.91,570.15,953.91,570.15z"
		/>
	<path d="M929.57,602.02c1,0.18,2.57-2.64-0.6-5.62c-2.36-2.21-2.9-0.66-2.72,2.96C926.44,602.98,929.57,602.02,929.57,602.02z"/>
	<path d="M1047.78,582.85c0.83,0.64,3.62-1.19,2.15-5.44c-1.1-3.16-2.34-1.99-3.9,1.41
		C1044.45,582.23,1047.78,582.85,1047.78,582.85z"/>
	<path d="M1012.04,568.2c1.05-0.01,2.11-3.18-1.69-5.6c-2.82-1.8-3.07-0.12-2.19,3.53S1012.04,568.2,1012.04,568.2z"/>
	<path d="M1073.14,598.35c0.44,0.96,3.76,0.63,4.43-3.82c0.5-3.3-1.14-2.85-4.11-0.57C1070.48,596.25,1073.14,598.35,1073.14,598.35
		z"/>
	<path d="M1094.52,586.5c1.04,0.16,2.6-2.78-0.73-5.8c-2.48-2.24-3.01-0.62-2.74,3.11C1091.31,587.56,1094.52,586.5,1094.52,586.5z"
		/>
	<path d="M1115.91,606.73c0.99,0.35,3.07-2.26,0.34-5.83c-2.03-2.66-2.84-1.16-3.27,2.56
		C1112.55,607.18,1115.91,606.73,1115.91,606.73z"/>
	<path d="M1133.63,602.98c0.27,1.02,3.59,1.28,5.02-2.99c1.06-3.17-0.63-3.01-3.95-1.27
		C1131.38,600.45,1133.63,602.98,1133.63,602.98z"/>
	<path d="M896.34,583.17c1.01-0.73-0.11-4.51-5.43-4.28c-3.95,0.17-3.06,1.97,0.27,4.9C894.51,586.73,896.34,583.17,896.34,583.17z"
		/>
	<path d="M862.5,602.81c1.18,0.4,3.6-2.72,0.32-6.91c-2.44-3.11-3.38-1.34-3.83,3.08C858.54,603.39,862.5,602.81,862.5,602.81z"/>
	<path d="M887.56,616.92c0.31,1.21,4.24,1.53,5.96-3.5c1.28-3.74-0.73-3.56-4.67-1.53C884.91,613.92,887.56,616.92,887.56,616.92z"
		/>
</g>
<g class="logo_name">
	<text transform="matrix(1 0 0 1 857.8673 927.04)" font-family="'AdobeArabic-Regular'" font-size="100px"> </text>
	<g>
		<path fill="#d6110a" d="M686.71,903.41h-21.62c-3.12,0-5.35-0.7-6.69-2.1c-1.34-1.4-2-3.63-2-6.69v-53.19
			c0-3.12,0.68-5.37,2.05-6.73c1.37-1.37,3.58-2.05,6.64-2.05h22.93c3.38,0,6.31,0.21,8.79,0.63c2.48,0.42,4.7,1.22,6.66,2.41
			c1.67,1,3.15,2.26,4.44,3.79c1.29,1.53,2.27,3.22,2.94,5.07s1.01,3.81,1.01,5.86c0,7.08-3.54,12.26-10.62,15.54
			c9.3,2.96,13.95,8.72,13.95,17.28c0,3.96-1.01,7.52-3.04,10.69c-2.03,3.17-4.76,5.51-8.21,7.02c-2.16,0.9-4.63,1.54-7.43,1.91
			C693.71,903.23,690.44,903.41,686.71,903.41z M670.73,843.41v18.29h13.13c3.57,0,6.33-0.34,8.28-1.01
			c1.95-0.68,3.43-1.96,4.46-3.86c0.8-1.35,1.21-2.86,1.21-4.54c0-3.57-1.27-5.95-3.81-7.12c-2.54-1.17-6.42-1.76-11.63-1.76H670.73
			z M685.64,871.99h-14.92v20.66h15.4c9.69,0,14.53-3.49,14.53-10.47c0-3.57-1.25-6.16-3.77-7.77
			C694.38,872.79,690.63,871.99,685.64,871.99z"/>
		<path fill="#d6110a" d="M760.9,897.18v-1.69c-1.58,2-3.23,3.67-4.97,5.02c-1.74,1.35-3.64,2.36-5.7,3.02
			c-2.06,0.66-4.41,0.99-7.05,0.99c-3.19,0-6.04-0.66-8.57-1.98c-2.53-1.32-4.48-3.14-5.86-5.45c-1.64-2.8-2.46-6.82-2.46-12.07
			v-26.11c0-2.64,0.6-4.61,1.79-5.91c1.19-1.3,2.77-1.95,4.73-1.95c2,0,3.6,0.66,4.83,1.98c1.22,1.32,1.83,3.28,1.83,5.89V880
			c0,3.06,0.26,5.62,0.77,7.7c0.51,2.08,1.44,3.7,2.78,4.88c1.33,1.18,3.15,1.76,5.43,1.76c2.22,0,4.31-0.66,6.27-1.98
			c1.96-1.32,3.39-3.04,4.3-5.17c0.74-1.87,1.11-5.95,1.11-12.26v-16.03c0-2.61,0.61-4.57,1.83-5.89c1.22-1.32,2.82-1.98,4.78-1.98
			c1.96,0,3.54,0.65,4.73,1.95c1.19,1.3,1.79,3.28,1.79,5.91v38.18c0,2.51-0.57,4.39-1.71,5.65c-1.14,1.25-2.61,1.88-4.42,1.88
			c-1.8,0-3.29-0.65-4.46-1.96C761.48,901.36,760.9,899.53,760.9,897.18z"/>
		<path fill="#d6110a" d="M799.46,885.6v11.01c0,2.67-0.63,4.67-1.88,6.01c-1.25,1.33-2.85,2-4.78,2c-1.9,0-3.46-0.68-4.68-2.03
			c-1.22-1.35-1.83-3.35-1.83-5.99v-36.69c0-5.92,2.14-8.88,6.42-8.88c2.19,0,3.77,0.69,4.73,2.08c0.97,1.38,1.5,3.43,1.59,6.13
			c1.58-2.7,3.19-4.75,4.85-6.13c1.66-1.38,3.87-2.08,6.64-2.08c2.77,0,5.45,0.69,8.06,2.08c2.61,1.38,3.91,3.22,3.91,5.5
			c0,1.61-0.56,2.94-1.67,3.98c-1.11,1.05-2.31,1.57-3.6,1.57c-0.48,0-1.65-0.3-3.5-0.89c-1.85-0.6-3.48-0.89-4.9-0.89
			c-1.93,0-3.51,0.51-4.73,1.52c-1.22,1.01-2.17,2.52-2.85,4.51s-1.14,4.37-1.4,7.12C799.59,878.29,799.46,881.64,799.46,885.6z"/>
		<path fill="#d6110a" d="M878.14,860.69v38.28c0,4.38-0.47,8.14-1.4,11.29c-0.93,3.15-2.43,5.76-4.49,7.82
			c-2.06,2.06-4.75,3.59-8.09,4.59c-3.33,1-7.47,1.5-12.43,1.5c-4.54,0-8.59-0.64-12.16-1.91c-3.57-1.27-6.32-2.91-8.25-4.92
			c-1.93-2.01-2.9-4.08-2.9-6.2c0-1.61,0.55-2.92,1.64-3.93c1.09-1.01,2.41-1.52,3.96-1.52c1.93,0,3.62,0.85,5.07,2.56
			c0.71,0.87,1.44,1.75,2.2,2.63c0.76,0.88,1.59,1.64,2.51,2.27c0.92,0.63,2.02,1.09,3.31,1.4c1.29,0.31,2.77,0.46,4.44,0.46
			c3.41,0,6.06-0.48,7.94-1.42c1.88-0.95,3.2-2.28,3.96-3.98c0.76-1.71,1.2-3.53,1.33-5.48c0.13-1.95,0.22-5.08,0.29-9.39
			c-2.03,2.83-4.37,4.99-7.02,6.47c-2.66,1.48-5.82,2.22-9.49,2.22c-4.41,0-8.26-1.13-11.56-3.38c-3.3-2.25-5.83-5.41-7.6-9.46
			c-1.77-4.05-2.66-8.74-2.66-14.05c0-3.96,0.54-7.53,1.62-10.72c1.08-3.19,2.61-5.87,4.61-8.06c1.99-2.19,4.3-3.84,6.9-4.95
			c2.61-1.11,5.47-1.67,8.59-1.67c3.73,0,6.97,0.72,9.7,2.15c2.73,1.43,5.28,3.68,7.63,6.73v-1.79c0-2.28,0.56-4.05,1.69-5.31
			c1.13-1.25,2.57-1.88,4.34-1.88c2.54,0,4.23,0.83,5.07,2.49C877.72,855.18,878.14,857.57,878.14,860.69z M839.96,877.39
			c0,5.34,1.17,9.38,3.5,12.12c2.33,2.74,5.35,4.1,9.05,4.1c2.19,0,4.25-0.59,6.2-1.76c1.95-1.17,3.53-2.94,4.75-5.31
			c1.22-2.37,1.83-5.24,1.83-8.62c0-5.37-1.18-9.56-3.55-12.55c-2.36-2.99-5.48-4.49-9.34-4.49c-3.77,0-6.78,1.43-9.05,4.3
			C841.1,868.05,839.96,872.12,839.96,877.39z"/>
		<path fill="#d6110a" d="M928.25,881.06h-25.78c0.03,2.99,0.63,5.63,1.81,7.92c1.17,2.29,2.73,4.01,4.68,5.17
			c1.95,1.16,4.09,1.74,6.44,1.74c1.58,0,3.02-0.18,4.32-0.55s2.57-0.95,3.79-1.74c1.22-0.79,2.35-1.63,3.38-2.53
			c1.03-0.9,2.37-2.12,4.01-3.67c0.68-0.58,1.64-0.87,2.9-0.87c1.35,0,2.45,0.37,3.28,1.11c0.84,0.74,1.25,1.79,1.25,3.14
			c0,1.19-0.47,2.58-1.4,4.17c-0.93,1.59-2.34,3.12-4.22,4.59c-1.88,1.46-4.25,2.68-7.1,3.64c-2.85,0.96-6.12,1.45-9.82,1.45
			c-8.46,0-15.04-2.41-19.74-7.24c-4.7-4.83-7.05-11.38-7.05-19.65c0-3.89,0.58-7.51,1.74-10.84c1.16-3.33,2.85-6.19,5.07-8.57
			c2.22-2.38,4.96-4.21,8.21-5.48c3.25-1.27,6.85-1.91,10.81-1.91c5.15,0,9.56,1.09,13.25,3.26c3.68,2.17,6.44,4.98,8.28,8.42
			c1.83,3.44,2.75,6.95,2.75,10.52c0,3.31-0.95,5.46-2.85,6.44C934.36,880.57,931.69,881.06,928.25,881.06z M902.47,873.58h23.89
			c-0.32-4.51-1.54-7.88-3.64-10.11c-2.11-2.24-4.88-3.35-8.33-3.35c-3.28,0-5.98,1.13-8.08,3.4
			C904.2,865.79,902.92,869.14,902.47,873.58z"/>
		<path fill="#d6110a" d="M963.29,885.6v11.01c0,2.67-0.63,4.67-1.88,6.01c-1.26,1.33-2.85,2-4.78,2c-1.9,0-3.46-0.68-4.68-2.03
			c-1.22-1.35-1.83-3.35-1.83-5.99v-36.69c0-5.92,2.14-8.88,6.42-8.88c2.19,0,3.77,0.69,4.73,2.08c0.96,1.38,1.5,3.43,1.59,6.13
			c1.58-2.7,3.19-4.75,4.85-6.13c1.66-1.38,3.87-2.08,6.64-2.08s5.46,0.69,8.06,2.08c2.61,1.38,3.91,3.22,3.91,5.5
			c0,1.61-0.55,2.94-1.67,3.98s-2.31,1.57-3.6,1.57c-0.48,0-1.65-0.3-3.5-0.89s-3.48-0.89-4.9-0.89c-1.93,0-3.51,0.51-4.73,1.52
			s-2.17,2.52-2.85,4.51s-1.14,4.37-1.4,7.12C963.42,878.29,963.29,881.64,963.29,885.6z"/>
		<path fill="#d6110a" d="M1076.05,894.63c2.09,1.42,4.38,2.79,6.85,4.13c2.48,1.34,4.12,2.4,4.92,3.19
			c0.8,0.79,1.21,1.91,1.21,3.36c0,1.03-0.47,2.06-1.42,3.09c-0.95,1.03-2.1,1.54-3.45,1.54c-1.09,0-2.42-0.35-3.98-1.06
			c-1.56-0.71-3.4-1.74-5.5-3.09s-4.42-2.93-6.93-4.73c-4.67,2.38-10.39,3.57-17.18,3.57c-5.5,0-10.43-0.88-14.79-2.63
			s-8.02-4.28-10.98-7.58c-2.96-3.3-5.19-7.22-6.69-11.75s-2.25-9.48-2.25-14.82c0-5.44,0.78-10.43,2.34-14.96
			c1.56-4.54,3.82-8.4,6.78-11.58s6.56-5.62,10.81-7.31s9.08-2.53,14.48-2.53c7.34,0,13.64,1.49,18.9,4.46
			c5.26,2.98,9.24,7.21,11.95,12.7s4.05,11.93,4.05,19.33C1085.17,879.16,1082.13,888.06,1076.05,894.63z M1064.8,886.81
			c2-2.29,3.47-4.99,4.42-8.11s1.42-6.74,1.42-10.86c0-5.18-0.84-9.67-2.51-13.47c-1.67-3.8-4.06-6.67-7.17-8.62
			c-3.11-1.95-6.67-2.92-10.69-2.92c-2.87,0-5.51,0.54-7.94,1.62c-2.43,1.08-4.52,2.65-6.28,4.71c-1.75,2.06-3.14,4.69-4.15,7.89
			c-1.01,3.2-1.52,6.8-1.52,10.79c0,8.14,1.9,14.41,5.7,18.8c3.8,4.39,8.59,6.59,14.38,6.59c2.38,0,4.83-0.5,7.34-1.5
			c-1.51-1.13-3.4-2.25-5.67-3.38c-2.27-1.13-3.82-1.99-4.66-2.61c-0.84-0.61-1.25-1.48-1.25-2.61c0-0.96,0.4-1.82,1.21-2.56
			s1.69-1.11,2.66-1.11C1053.01,879.47,1057.91,881.92,1064.8,886.81z"/>
		<path fill="#d6110a" d="M1130.74,897.18v-1.69c-1.58,2-3.23,3.67-4.97,5.02c-1.74,1.35-3.64,2.36-5.7,3.02s-4.41,0.99-7.05,0.99
			c-3.19,0-6.04-0.66-8.57-1.98c-2.53-1.32-4.48-3.14-5.86-5.45c-1.64-2.8-2.46-6.82-2.46-12.07v-26.11c0-2.64,0.59-4.61,1.79-5.91
			c1.19-1.3,2.77-1.95,4.73-1.95c1.99,0,3.6,0.66,4.83,1.98c1.22,1.32,1.83,3.28,1.83,5.89V880c0,3.06,0.26,5.62,0.77,7.7
			c0.51,2.08,1.44,3.7,2.78,4.88c1.33,1.18,3.14,1.76,5.43,1.76c2.22,0,4.31-0.66,6.28-1.98c1.96-1.32,3.39-3.04,4.3-5.17
			c0.74-1.87,1.11-5.95,1.11-12.26v-16.03c0-2.61,0.61-4.57,1.83-5.89c1.22-1.32,2.82-1.98,4.78-1.98c1.96,0,3.54,0.65,4.73,1.95
			c1.19,1.3,1.79,3.28,1.79,5.91v38.18c0,2.51-0.57,4.39-1.71,5.65c-1.14,1.25-2.62,1.88-4.42,1.88c-1.8,0-3.29-0.65-4.46-1.96
			C1131.32,901.36,1130.74,899.53,1130.74,897.18z"/>
		<path fill="#d6110a" d="M1193,881.06h-25.78c0.03,2.99,0.63,5.63,1.81,7.92c1.17,2.29,2.74,4.01,4.68,5.17
			c1.95,1.16,4.09,1.74,6.44,1.74c1.58,0,3.02-0.18,4.32-0.55c1.3-0.37,2.57-0.95,3.79-1.74c1.22-0.79,2.35-1.63,3.38-2.53
			c1.03-0.9,2.37-2.12,4.01-3.67c0.68-0.58,1.64-0.87,2.9-0.87c1.35,0,2.45,0.37,3.28,1.11c0.84,0.74,1.25,1.79,1.25,3.14
			c0,1.19-0.47,2.58-1.4,4.17c-0.93,1.59-2.34,3.12-4.22,4.59c-1.88,1.46-4.25,2.68-7.1,3.64c-2.85,0.96-6.12,1.45-9.82,1.45
			c-8.46,0-15.04-2.41-19.74-7.24c-4.7-4.83-7.05-11.38-7.05-19.65c0-3.89,0.58-7.51,1.74-10.84c1.16-3.33,2.85-6.19,5.07-8.57
			c2.22-2.38,4.96-4.21,8.21-5.48c3.25-1.27,6.85-1.91,10.81-1.91c5.15,0,9.57,1.09,13.25,3.26s6.44,4.98,8.28,8.42
			c1.83,3.44,2.75,6.95,2.75,10.52c0,3.31-0.95,5.46-2.85,6.44C1199.12,880.57,1196.45,881.06,1193,881.06z M1167.23,873.58h23.89
			c-0.32-4.51-1.54-7.88-3.64-10.11c-2.11-2.24-4.88-3.35-8.33-3.35c-3.28,0-5.98,1.13-8.09,3.4S1167.68,869.14,1167.23,873.58z"/>
		<path fill="#d6110a" d="M1251.75,881.06h-25.78c0.03,2.99,0.63,5.63,1.81,7.92c1.17,2.29,2.74,4.01,4.68,5.17
			c1.95,1.16,4.09,1.74,6.44,1.74c1.58,0,3.02-0.18,4.32-0.55c1.3-0.37,2.57-0.95,3.79-1.74c1.22-0.79,2.35-1.63,3.38-2.53
			c1.03-0.9,2.37-2.12,4.01-3.67c0.68-0.58,1.64-0.87,2.9-0.87c1.35,0,2.45,0.37,3.28,1.11c0.84,0.74,1.25,1.79,1.25,3.14
			c0,1.19-0.47,2.58-1.4,4.17c-0.93,1.59-2.34,3.12-4.22,4.59c-1.88,1.46-4.25,2.68-7.1,3.64c-2.85,0.96-6.12,1.45-9.82,1.45
			c-8.46,0-15.04-2.41-19.74-7.24c-4.7-4.83-7.05-11.38-7.05-19.65c0-3.89,0.58-7.51,1.74-10.84c1.16-3.33,2.85-6.19,5.07-8.57
			c2.22-2.38,4.96-4.21,8.21-5.48c3.25-1.27,6.85-1.91,10.81-1.91c5.15,0,9.57,1.09,13.25,3.26s6.44,4.98,8.28,8.42
			c1.83,3.44,2.75,6.95,2.75,10.52c0,3.31-0.95,5.46-2.85,6.44C1257.86,880.57,1255.19,881.06,1251.75,881.06z M1225.97,873.58
			h23.89c-0.32-4.51-1.54-7.88-3.64-10.11c-2.11-2.24-4.88-3.35-8.33-3.35c-3.28,0-5.98,1.13-8.09,3.4
			S1226.42,869.14,1225.97,873.58z"/>
		<path fill="#d6110a" d="M1285.68,858.33v1.59c2.32-3.06,4.85-5.3,7.6-6.73c2.75-1.43,5.91-2.15,9.49-2.15
			c3.48,0,6.58,0.76,9.32,2.27c2.73,1.51,4.78,3.65,6.13,6.42c0.87,1.61,1.43,3.35,1.69,5.21c0.26,1.87,0.39,4.25,0.39,7.14v24.52
			c0,2.64-0.6,4.63-1.81,5.99c-1.21,1.35-2.78,2.03-4.71,2.03c-1.96,0-3.56-0.69-4.78-2.08c-1.22-1.38-1.83-3.36-1.83-5.94v-21.96
			c0-4.34-0.6-7.67-1.81-9.97c-1.21-2.3-3.61-3.45-7.22-3.45c-2.35,0-4.49,0.7-6.42,2.1s-3.35,3.32-4.25,5.77
			c-0.64,1.96-0.96,5.63-0.96,11v16.51c0,2.67-0.62,4.67-1.86,6.01c-1.24,1.33-2.84,2-4.8,2c-1.9,0-3.46-0.69-4.68-2.08
			c-1.22-1.38-1.83-3.36-1.83-5.94v-38.08c0-2.51,0.55-4.38,1.64-5.62s2.59-1.86,4.49-1.86c1.16,0,2.2,0.27,3.14,0.82
			c0.93,0.55,1.68,1.37,2.24,2.46C1285.4,855.42,1285.68,856.75,1285.68,858.33z"/>
	</g>
</g>
</svg>
